<svg xmlns="http://www.w3.org/2000/svg" viewBox="0 0 64 64" role="img" aria-label="Sokoni">
  <title>Sokoni</title>
  <defs>
    <linearGradient id="bag" x1="12%" y1="0%" x2="88%" y2="100%"><stop offset="0%" stop-color="#34E385"/><stop offset="100%" stop-color="#13A455"/></linearGradient>
    <mask id="cut" maskUnits="userSpaceOnUse" x="0" y="0" width="512" height="512"><rect x="0" y="0" width="512" height="512" fill="#fff"/><path d="M166 312 L226 372 L346 252" fill="none" stroke="#000" stroke-width="56" stroke-linecap="butt" stroke-linejoin="miter"/></mask>
  </defs>
  <rect width="64" height="64" rx="15" fill="#0B1F18"/>
  <g transform="translate(-4.6 -6.6) scale(0.1429)">
    <path d="M176 180 C176 88 336 88 336 180" fill="none" stroke="#D4A13C" stroke-width="46" stroke-linecap="butt"/>
    <g mask="url(#cut)"><path d="M106 180 H406 L384 424 C382 440 370 452 354 452 H158 C142 452 130 440 128 424 Z" fill="url(#bag)"/><path d="M336 180 H406 L384 424 C382 440 370 452 354 452 H349 Z" fill="#06341C" opacity="0.17"/></g>
  </g>
</svg>
